<svg width="1440" height="1024" viewBox="0 0 1440 1024" fill="none" xmlns="http://www.w3.org/2000/svg">
<g clip-path="url(#clip0_303_14)">
<rect width="1440" height="1024" fill="#2E2E2E" fill-opacity="0.82"/>
<path fill-rule="evenodd" clip-rule="evenodd" d="M85 -1H28V1025H85V-1ZM187 -1H130V1025H187V-1ZM232 -1H289V1025H232V-1ZM391 -1H334V1025H391V-1ZM436 -1H493V1025H436V-1ZM595 -1H538V1025H595V-1ZM640 -1H697V1025H640V-1ZM799 -1H742V1025H799V-1ZM844 -1H901V1025H844V-1ZM1003 -1H946V1025H1003V-1ZM1048 -1H1105V1025H1048V-1ZM1207 -1H1150V1025H1207V-1ZM1252 -1H1309V1027H1252V-1ZM1411 -1H1354V1025H1411V-1Z" fill="white"/>
</g>
<defs>
<clipPath id="clip0_303_14">
<rect width="1440" height="1024" fill="white"/>
</clipPath>
</defs>
</svg>
