<?xml version="1.0" encoding="utf-8" ?>
<svg baseProfile="full" height="1388" version="1.1" width="1682" xmlns="http://www.w3.org/2000/svg" xmlns:ev="http://www.w3.org/2001/xml-events" xmlns:xlink="http://www.w3.org/1999/xlink"><defs /><path d="M 786,73 785,74 783,74 782,75 778,75 777,74 770,74 769,75 762,75 761,74 758,74 757,75 754,75 753,76 747,76 746,77 745,76 743,76 742,77 738,77 737,78 730,78 729,77 727,77 726,78 725,77 724,77 723,78 722,77 721,78 714,78 713,77 709,77 708,78 707,77 706,77 705,78 698,78 697,77 695,77 694,78 693,77 690,77 688,79 682,79 681,78 679,78 678,79 674,79 673,80 666,80 665,79 658,79 657,80 650,80 649,79 642,79 641,80 636,80 635,81 634,81 633,80 632,80 630,82 621,82 620,83 618,83 617,84 614,84 613,85 603,85 601,87 596,87 595,88 594,88 593,87 591,87 590,88 588,88 586,90 585,89 583,89 582,90 579,90 577,92 575,92 574,93 572,93 571,94 570,94 569,93 568,93 567,94 564,94 563,95 562,95 560,97 555,97 553,99 550,99 549,100 543,100 542,101 539,101 537,103 535,103 534,104 526,104 526,105 525,106 523,106 522,107 521,106 520,107 517,107 516,108 514,108 513,109 512,109 511,110 508,110 507,111 506,111 505,110 504,111 501,111 500,112 498,112 497,113 492,113 491,114 490,114 489,115 487,115 486,116 483,116 482,117 481,116 480,116 479,117 476,117 475,118 474,118 473,119 472,119 471,120 470,120 469,121 466,121 465,122 464,122 463,123 462,123 461,124 460,124 459,125 455,125 454,126 453,126 452,127 451,127 449,129 446,129 445,130 444,130 443,131 442,131 442,132 441,133 440,133 439,134 438,134 437,135 436,135 435,136 432,136 430,138 428,138 427,139 424,139 423,140 422,140 421,141 420,141 419,142 418,142 416,144 415,144 414,145 411,145 408,148 407,148 406,149 405,149 403,151 401,151 400,152 399,152 399,153 398,154 397,154 395,156 392,156 391,157 390,157 389,158 388,158 387,159 386,159 386,160 385,161 383,161 382,162 381,162 380,163 379,163 376,166 375,166 373,168 372,168 371,169 370,169 369,170 368,170 366,172 365,172 363,174 361,174 360,175 359,175 358,176 358,177 357,178 356,178 354,180 352,180 350,182 349,182 347,184 347,185 346,186 345,185 340,190 339,190 338,191 338,192 337,193 336,193 332,197 331,197 330,198 330,199 328,201 327,201 322,206 322,207 321,208 320,208 319,209 318,209 310,217 309,217 306,220 306,221 303,224 302,224 301,225 300,225 298,227 298,228 293,233 292,233 290,235 290,236 288,238 288,239 286,241 285,241 283,243 283,244 282,245 282,246 277,251 277,252 274,255 274,256 271,259 271,260 269,262 269,263 268,264 268,266 266,268 265,268 265,269 263,271 263,273 262,274 262,275 260,277 260,278 258,280 257,280 258,281 255,284 255,285 253,287 253,288 252,289 251,289 251,290 250,291 250,293 249,294 249,295 245,299 245,300 243,302 243,303 242,304 243,305 242,306 241,306 241,307 240,308 240,309 239,310 239,311 238,312 238,314 236,316 236,317 235,318 235,319 234,320 233,320 234,321 233,322 233,323 232,324 232,325 231,326 231,327 227,331 227,332 226,333 226,335 223,338 223,339 222,340 222,341 220,343 220,345 219,346 219,347 218,348 217,348 217,349 215,351 215,354 213,356 213,357 212,358 212,359 210,361 210,362 209,363 209,364 207,366 207,367 204,370 204,371 203,372 203,373 202,374 202,375 199,378 199,379 198,380 198,381 197,382 197,383 196,384 196,386 194,388 193,388 193,389 191,391 191,393 188,396 188,397 185,400 185,402 183,404 183,405 178,410 178,412 176,414 176,415 171,420 171,421 170,422 170,424 168,426 168,427 167,428 167,429 166,430 166,436 163,439 163,440 162,441 162,444 161,445 161,448 159,450 159,458 158,459 158,464 157,465 157,467 156,468 156,479 155,480 155,484 154,485 154,488 153,489 153,490 152,491 152,492 151,493 151,495 150,496 150,499 149,500 149,502 148,503 148,504 147,505 147,506 146,507 146,510 145,511 145,512 143,514 143,516 141,518 141,522 140,523 140,525 139,526 139,528 138,529 138,532 137,533 137,536 135,538 135,541 134,542 134,545 133,546 133,550 132,551 132,552 131,553 131,555 133,557 132,558 132,561 133,562 133,566 132,567 131,566 131,563 131,566 132,567 132,568 131,569 130,568 130,572 129,573 129,576 128,577 128,579 127,580 127,588 126,589 126,592 125,593 125,599 124,600 125,600 126,601 126,605 125,606 124,605 124,602 124,606 125,607 125,610 124,611 123,610 123,608 123,614 122,615 122,620 121,621 121,633 120,634 120,646 121,647 121,648 120,649 119,649 119,709 119,688 120,687 121,688 121,689 122,690 122,696 123,697 123,700 124,701 124,704 123,705 123,719 122,720 121,720 120,719 120,713 119,713 119,717 120,718 120,723 120,721 121,720 122,721 122,724 121,725 121,736 122,737 122,742 121,743 121,750 120,751 120,752 121,753 121,757 120,758 120,761 119,762 119,768 120,769 120,772 119,773 119,777 118,778 118,783 117,784 118,785 118,789 117,790 117,793 116,794 116,799 115,800 116,801 116,804 115,805 115,808 114,809 115,810 116,809 116,803 117,802 117,800 118,799 118,794 119,793 118,792 118,788 119,787 119,784 120,783 120,769 121,768 121,761 122,760 122,756 123,755 124,756 124,760 125,761 125,765 125,758 124,757 124,753 123,752 123,746 122,745 123,744 123,737 122,736 122,734 123,733 123,722 124,721 123,720 123,717 124,716 124,713 125,712 126,713 126,715 127,716 127,719 128,720 127,721 127,722 128,723 128,725 129,726 129,728 130,729 130,733 131,734 131,736 132,737 132,740 133,741 133,744 132,745 132,752 133,753 133,768 134,769 134,770 135,771 135,782 136,783 136,784 137,785 137,788 138,789 138,793 139,794 139,798 140,799 140,800 139,801 139,802 140,803 140,805 141,806 141,808 143,810 143,813 144,814 144,818 145,819 145,822 147,824 147,828 148,829 148,830 149,831 149,832 150,833 150,834 151,835 151,848 152,849 152,860 153,861 153,864 154,865 154,868 155,869 155,871 154,872 153,871 153,870 153,871 154,872 154,874 155,875 155,876 155,875 154,874 154,872 155,871 157,873 157,874 158,875 158,876 159,877 159,878 161,880 160,881 161,882 161,884 160,885 158,883 158,882 157,881 157,880 156,879 156,878 156,879 157,880 157,883 158,884 158,885 159,886 159,894 160,895 160,896 159,897 159,898 160,899 160,900 161,901 161,903 162,904 162,905 163,906 163,908 164,909 164,911 167,914 167,916 168,917 168,918 169,919 169,923 170,923 171,924 171,926 172,927 172,930 173,931 173,933 175,935 175,936 177,938 177,939 178,940 178,942 179,943 179,944 180,944 182,946 182,947 186,951 186,952 191,957 191,958 193,960 193,961 194,961 195,962 195,963 198,966 198,967 199,968 199,969 201,971 201,972 202,972 205,975 205,977 207,979 207,980 209,982 209,983 210,983 211,984 211,986 213,988 213,989 215,991 215,992 216,992 217,993 217,994 218,995 218,996 219,997 219,998 224,1003 224,1004 226,1006 226,1007 229,1010 229,1011 232,1014 232,1015 233,1016 233,1017 234,1017 235,1018 235,1019 238,1022 235,1019 235,1018 234,1017 234,1016 233,1016 232,1015 232,1014 229,1011 229,1010 228,1009 228,1008 224,1004 224,1003 222,1001 222,1000 221,999 221,998 219,996 219,995 220,994 223,997 223,998 226,1001 226,1002 231,1007 231,1008 232,1008 234,1010 234,1011 239,1016 240,1016 242,1018 242,1020 244,1022 245,1022 247,1024 248,1024 249,1025 249,1026 250,1027 250,1028 254,1032 255,1032 257,1034 257,1035 258,1036 258,1037 264,1043 264,1044 266,1046 266,1047 274,1055 274,1056 275,1056 281,1062 281,1063 287,1069 287,1070 289,1072 289,1074 290,1073 291,1074 291,1075 294,1078 294,1079 295,1080 295,1081 296,1082 296,1083 297,1084 298,1084 301,1087 301,1089 300,1090 299,1090 281,1072 281,1071 275,1065 274,1065 273,1064 273,1063 269,1059 269,1058 268,1058 265,1055 265,1054 257,1046 257,1045 255,1043 255,1042 254,1042 251,1039 252,1040 252,1041 257,1046 257,1047 258,1047 259,1048 259,1049 263,1053 263,1054 264,1054 265,1055 265,1056 275,1066 275,1067 280,1072 281,1072 282,1073 282,1074 288,1080 289,1080 290,1081 290,1082 295,1087 295,1090 296,1091 296,1092 297,1093 297,1094 298,1095 298,1097 299,1098 299,1099 300,1100 300,1101 301,1102 301,1103 302,1104 302,1106 303,1107 303,1108 304,1109 304,1110 305,1111 305,1112 307,1114 307,1116 309,1118 309,1120 310,1120 311,1121 311,1125 312,1126 312,1128 311,1129 312,1130 312,1136 313,1136 314,1137 314,1138 315,1139 315,1140 319,1144 320,1144 322,1146 322,1148 326,1152 327,1152 330,1155 330,1156 331,1157 331,1158 338,1165 338,1166 339,1167 339,1168 341,1168 349,1176 351,1176 352,1177 352,1178 353,1178 354,1179 354,1180 355,1181 355,1182 357,1184 358,1184 362,1188 362,1189 364,1191 364,1192 365,1192 370,1197 370,1199 371,1200 372,1200 373,1201 373,1202 376,1205 376,1206 380,1210 380,1211 385,1216 385,1217 386,1217 393,1224 393,1225 394,1225 397,1228 398,1228 402,1232 404,1232 406,1234 407,1234 411,1238 412,1238 414,1240 417,1240 418,1241 418,1242 419,1242 420,1243 421,1243 423,1245 424,1245 425,1246 426,1245 427,1246 428,1246 429,1247 430,1247 431,1248 431,1249 432,1249 433,1250 435,1250 436,1251 437,1251 438,1252 439,1252 440,1253 441,1253 443,1255 445,1255 446,1256 449,1256 450,1257 452,1257 453,1258 455,1258 456,1259 457,1259 458,1258 459,1258 460,1259 462,1259 463,1260 465,1260 467,1262 469,1262 470,1263 472,1263 473,1264 474,1263 476,1265 478,1265 479,1266 480,1266 481,1267 482,1266 483,1267 484,1267 485,1268 486,1268 487,1269 489,1269 490,1270 490,1271 492,1271 493,1272 496,1272 499,1275 500,1275 501,1276 503,1276 504,1277 506,1277 507,1278 508,1278 509,1279 511,1279 512,1280 512,1281 516,1281 517,1282 519,1282 520,1283 521,1283 523,1285 526,1285 527,1286 532,1286 533,1287 535,1287 537,1289 538,1288 539,1289 541,1289 542,1290 544,1290 546,1292 547,1292 548,1293 550,1293 551,1294 555,1294 556,1295 557,1295 559,1297 560,1297 561,1298 562,1297 563,1298 565,1298 566,1299 568,1299 570,1301 573,1301 574,1302 576,1302 577,1303 578,1302 580,1302 581,1303 583,1303 585,1305 586,1304 587,1304 588,1305 591,1305 592,1306 593,1306 594,1307 596,1307 597,1308 599,1308 600,1309 601,1309 602,1308 603,1309 605,1309 606,1310 608,1310 610,1312 614,1312 615,1313 616,1313 618,1315 619,1315 620,1316 621,1316 622,1317 623,1317 624,1318 627,1318 628,1319 630,1319 631,1320 631,1321 636,1321 637,1322 641,1322 643,1324 647,1324 648,1325 649,1325 650,1324 656,1324 657,1325 659,1325 660,1326 665,1326 666,1325 667,1326 673,1326 674,1327 677,1327 678,1328 681,1328 682,1329 689,1329 690,1328 697,1328 698,1329 705,1329 706,1328 713,1328 714,1329 721,1329 722,1328 729,1328 730,1329 737,1329 738,1328 745,1328 746,1329 753,1329 754,1328 761,1328 762,1329 769,1329 770,1328 777,1328 778,1329 785,1329 786,1328 793,1328 794,1329 801,1329 802,1328 809,1328 810,1329 817,1329 818,1328 825,1328 826,1329 833,1329 834,1328 843,1328 844,1327 854,1327 855,1326 857,1326 858,1325 863,1325 864,1324 865,1324 866,1325 870,1325 871,1324 873,1324 874,1323 878,1323 879,1322 881,1322 882,1323 883,1323 884,1322 888,1322 889,1321 890,1321 891,1320 897,1320 898,1319 902,1319 903,1318 905,1318 906,1319 907,1318 910,1318 911,1317 913,1317 914,1316 917,1316 918,1315 926,1315 927,1314 929,1314 930,1313 931,1313 932,1312 937,1312 939,1310 942,1310 943,1309 949,1309 950,1308 953,1308 955,1306 958,1306 959,1305 965,1305 967,1303 976,1303 978,1301 981,1301 982,1300 984,1300 985,1299 986,1300 987,1300 988,1299 991,1299 992,1298 993,1298 994,1297 995,1297 996,1296 1001,1296 1003,1294 1005,1294 1006,1293 1008,1293 1009,1292 1010,1293 1011,1293 1012,1292 1014,1292 1015,1291 1017,1291 1019,1289 1021,1289 1022,1288 1025,1288 1026,1287 1028,1287 1029,1286 1031,1286 1032,1285 1033,1285 1034,1286 1035,1285 1037,1285 1038,1284 1040,1284 1042,1282 1044,1282 1045,1281 1048,1281 1049,1280 1050,1281 1052,1279 1053,1279 1054,1278 1056,1278 1057,1277 1058,1278 1059,1277 1062,1277 1063,1276 1064,1276 1066,1274 1068,1274 1069,1273 1070,1273 1071,1272 1073,1272 1074,1271 1075,1271 1076,1270 1077,1270 1078,1269 1079,1269 1081,1267 1082,1268 1083,1267 1084,1267 1085,1266 1086,1266 1087,1265 1088,1265 1088,1264 1089,1263 1090,1264 1091,1263 1092,1263 1093,1262 1094,1262 1095,1261 1096,1261 1097,1260 1097,1259 1098,1258 1099,1258 1100,1257 1101,1257 1102,1256 1104,1256 1107,1253 1108,1253 1109,1252 1110,1252 1111,1251 1112,1251 1113,1250 1115,1250 1119,1246 1120,1246 1121,1245 1123,1245 1125,1243 1126,1243 1128,1241 1129,1241 1131,1239 1132,1239 1135,1236 1136,1236 1137,1235 1137,1234 1139,1232 1141,1232 1142,1231 1143,1231 1148,1226 1149,1226 1151,1224 1153,1224 1153,1223 1154,1222 1155,1222 1157,1220 1158,1220 1160,1218 1161,1218 1162,1219 1163,1218 1165,1218 1166,1217 1168,1217 1168,1216 1169,1215 1170,1216 1171,1215 1173,1215 1174,1214 1176,1214 1178,1212 1179,1212 1180,1211 1181,1211 1182,1210 1183,1210 1185,1208 1186,1209 1186,1208 1187,1207 1188,1207 1189,1206 1190,1206 1191,1205 1192,1205 1193,1204 1194,1205 1195,1204 1196,1204 1197,1203 1198,1203 1200,1201 1201,1201 1203,1199 1204,1199 1209,1194 1209,1193 1210,1192 1211,1192 1217,1186 1217,1185 1218,1184 1219,1184 1225,1178 1225,1177 1226,1176 1227,1176 1232,1171 1232,1170 1234,1168 1235,1168 1236,1167 1236,1166 1240,1162 1240,1160 1241,1159 1242,1159 1244,1157 1244,1156 1246,1154 1246,1152 1249,1149 1250,1149 1250,1148 1253,1145 1253,1143 1256,1140 1256,1139 1257,1138 1258,1138 1258,1136 1259,1135 1259,1134 1262,1131 1262,1130 1264,1128 1265,1128 1265,1126 1266,1125 1266,1124 1270,1120 1271,1120 1271,1119 1273,1117 1273,1115 1280,1108 1280,1107 1281,1106 1281,1105 1284,1102 1284,1101 1285,1100 1285,1099 1286,1098 1286,1096 1288,1094 1288,1093 1289,1092 1290,1092 1290,1091 1292,1089 1292,1087 1295,1084 1295,1083 1296,1082 1298,1082 1299,1081 1300,1081 1300,1080 1301,1079 1302,1079 1303,1078 1304,1078 1305,1077 1307,1077 1309,1075 1310,1075 1311,1074 1312,1074 1314,1072 1315,1072 1317,1070 1318,1070 1320,1068 1321,1068 1321,1067 1322,1066 1323,1066 1325,1064 1327,1064 1328,1063 1329,1063 1329,1062 1330,1061 1331,1061 1332,1060 1333,1060 1335,1058 1336,1058 1337,1057 1338,1058 1339,1057 1339,1056 1340,1055 1341,1055 1342,1054 1343,1054 1345,1052 1346,1053 1347,1052 1348,1052 1350,1050 1351,1050 1352,1049 1352,1048 1353,1047 1354,1048 1356,1046 1357,1046 1359,1044 1360,1044 1361,1043 1361,1042 1362,1041 1363,1041 1364,1040 1366,1040 1372,1034 1373,1034 1375,1032 1377,1032 1377,1031 1380,1028 1381,1028 1384,1025 1386,1025 1386,1024 1388,1022 1389,1022 1393,1018 1395,1018 1396,1017 1396,1016 1399,1013 1400,1013 1401,1012 1402,1012 1405,1009 1406,1009 1406,1008 1409,1005 1410,1005 1411,1004 1412,1004 1415,1001 1415,1000 1416,999 1418,999 1421,996 1422,996 1426,992 1427,992 1431,988 1432,988 1433,987 1433,986 1435,984 1437,984 1441,980 1441,979 1442,978 1443,978 1445,976 1446,976 1454,968 1456,968 1457,967 1457,966 1460,963 1461,963 1464,960 1465,960 1465,959 1466,958 1467,958 1479,946 1480,946 1481,945 1482,945 1482,944 1489,937 1490,937 1490,936 1493,933 1494,933 1497,930 1498,930 1499,929 1499,928 1505,922 1506,922 1507,921 1507,920 1513,914 1514,914 1514,912 1517,909 1517,908 1519,906 1519,905 1520,904 1521,904 1521,902 1523,900 1523,899 1528,894 1528,892 1529,891 1529,889 1532,886 1532,884 1533,883 1533,882 1534,881 1533,880 1534,879 1534,878 1535,877 1535,875 1536,874 1536,873 1537,872 1537,868 1538,867 1538,865 1539,864 1539,862 1540,861 1540,851 1541,850 1541,847 1542,846 1542,841 1541,840 1541,833 1542,832 1542,825 1541,824 1541,817 1542,816 1542,809 1541,808 1541,802 1540,801 1541,800 1541,796 1540,795 1540,792 1539,791 1539,787 1538,786 1538,781 1536,779 1536,775 1535,774 1535,773 1534,772 1534,770 1532,768 1532,766 1531,765 1531,763 1530,762 1530,758 1528,756 1528,754 1527,753 1528,752 1527,751 1527,749 1526,748 1526,746 1524,744 1524,743 1523,742 1523,741 1522,740 1522,739 1521,738 1521,737 1520,736 1520,734 1519,733 1519,732 1518,731 1518,730 1517,729 1518,728 1516,726 1516,724 1515,723 1515,722 1513,720 1513,718 1512,717 1512,715 1511,714 1511,713 1510,713 1509,712 1509,711 1508,710 1508,709 1507,708 1507,707 1506,706 1506,704 1505,704 1504,703 1504,702 1503,701 1503,700 1502,699 1502,698 1501,697 1501,695 1500,694 1500,693 1498,691 1498,690 1497,690 1496,689 1496,687 1493,684 1493,683 1492,682 1492,681 1491,681 1490,680 1490,677 1489,676 1489,673 1488,672 1488,669 1487,668 1487,662 1486,661 1486,657 1484,655 1484,652 1483,651 1483,649 1484,648 1483,647 1483,645 1482,644 1482,641 1481,640 1481,638 1480,637 1480,634 1479,633 1479,632 1478,631 1478,625 1479,624 1479,617 1478,616 1478,595 1477,594 1477,593 1478,592 1478,585 1477,584 1477,583 1476,582 1476,569 1475,568 1475,567 1474,566 1474,555 1472,553 1473,552 1473,550 1472,549 1472,545 1470,543 1470,538 1469,537 1470,536 1470,535 1469,534 1469,532 1468,531 1468,529 1467,528 1467,525 1466,524 1466,519 1464,517 1464,514 1463,513 1464,512 1464,511 1463,510 1463,509 1462,508 1462,505 1461,505 1460,504 1460,502 1459,501 1459,498 1458,497 1459,496 1458,495 1458,492 1457,492 1456,491 1456,490 1455,489 1456,488 1455,487 1455,486 1454,485 1454,483 1453,482 1453,481 1451,479 1451,478 1450,477 1450,475 1449,474 1449,473 1448,472 1448,471 1447,470 1447,469 1446,468 1446,467 1445,466 1445,464 1444,463 1444,462 1443,461 1443,460 1442,459 1442,457 1440,455 1440,453 1439,452 1439,451 1438,450 1438,449 1436,447 1436,446 1435,445 1435,444 1434,443 1434,442 1433,441 1434,440 1433,440 1432,439 1432,438 1431,437 1431,436 1430,435 1430,434 1429,433 1430,432 1428,430 1428,428 1426,426 1425,426 1424,425 1424,423 1422,421 1422,420 1421,419 1421,418 1420,417 1419,417 1418,416 1418,415 1417,414 1417,413 1416,412 1416,411 1412,407 1412,406 1410,404 1410,403 1409,402 1409,401 1408,401 1407,400 1407,399 1404,396 1404,395 1402,393 1402,391 1401,391 1400,390 1400,389 1398,387 1398,386 1397,385 1397,384 1396,383 1396,382 1391,377 1391,376 1390,375 1390,374 1386,370 1386,369 1384,367 1384,366 1380,362 1379,362 1378,363 1380,365 1380,366 1381,366 1382,367 1382,368 1383,368 1385,370 1385,371 1386,372 1386,373 1388,375 1388,376 1389,376 1392,379 1392,380 1394,382 1394,384 1395,384 1396,385 1396,386 1399,389 1399,390 1401,392 1400,393 1401,394 1402,394 1403,395 1403,396 1405,398 1405,399 1406,400 1406,401 1408,403 1408,404 1409,405 1410,405 1411,406 1411,407 1412,408 1412,410 1414,412 1414,413 1416,415 1416,416 1417,416 1418,417 1418,418 1419,419 1419,420 1421,422 1421,423 1426,428 1426,430 1427,431 1427,432 1429,434 1429,435 1431,437 1431,438 1432,439 1432,442 1433,443 1433,444 1435,446 1435,447 1436,448 1436,451 1438,453 1438,456 1439,456 1440,457 1440,458 1441,459 1441,460 1442,461 1442,464 1443,464 1444,465 1444,466 1445,467 1445,468 1446,469 1446,470 1447,471 1447,473 1448,474 1448,476 1449,477 1449,478 1450,478 1451,479 1451,482 1452,483 1452,485 1453,486 1453,487 1455,489 1455,490 1456,491 1456,493 1457,494 1457,498 1458,499 1458,500 1459,501 1459,503 1460,504 1459,505 1460,506 1460,508 1461,509 1461,511 1463,513 1463,516 1464,517 1464,519 1465,520 1464,521 1464,522 1465,523 1465,525 1466,526 1466,527 1467,528 1466,529 1466,531 1467,532 1467,534 1468,535 1468,536 1469,537 1469,541 1470,542 1470,550 1471,551 1471,552 1472,553 1472,557 1473,558 1473,560 1472,561 1473,562 1473,567 1474,568 1474,576 1475,577 1475,578 1476,579 1476,592 1477,593 1477,600 1476,601 1476,608 1477,609 1477,613 1478,614 1478,616 1477,617 1477,621 1476,622 1475,621 1475,619 1474,618 1474,617 1473,616 1473,612 1472,611 1472,609 1470,607 1470,605 1469,604 1469,603 1468,602 1468,597 1467,596 1467,595 1466,594 1466,593 1465,592 1465,589 1464,588 1464,586 1462,584 1462,583 1461,582 1461,580 1460,579 1460,578 1459,577 1460,576 1460,575 1459,574 1459,573 1458,572 1458,570 1457,569 1457,568 1456,567 1456,565 1455,564 1455,563 1454,562 1454,560 1453,559 1453,556 1453,557 1452,558 1451,557 1451,555 1452,554 1452,550 1451,549 1451,547 1450,546 1450,544 1449,543 1449,539 1448,538 1448,536 1448,540 1449,541 1449,543 1450,544 1450,548 1451,549 1450,550 1449,550 1448,549 1448,547 1447,546 1447,543 1446,542 1446,540 1445,539 1445,538 1443,536 1443,535 1442,534 1442,532 1441,531 1441,528 1440,527 1440,525 1439,524 1439,522 1438,521 1439,520 1438,519 1438,516 1437,515 1437,514 1435,512 1435,507 1435,512 1434,513 1434,514 1435,515 1435,516 1436,517 1436,520 1437,520 1438,521 1438,523 1439,524 1439,526 1440,527 1440,532 1441,533 1441,535 1442,536 1442,538 1443,539 1443,540 1444,541 1444,542 1445,543 1445,544 1447,546 1447,548 1448,549 1448,551 1449,552 1448,553 1449,554 1449,555 1451,557 1451,558 1452,559 1452,563 1454,565 1454,567 1456,569 1456,572 1457,573 1457,579 1458,580 1458,583 1458,580 1459,579 1460,580 1460,582 1461,583 1461,586 1462,587 1462,589 1463,590 1463,591 1465,593 1465,595 1466,596 1466,600 1468,602 1468,604 1469,605 1469,606 1470,607 1470,612 1471,613 1471,614 1472,615 1472,616 1473,617 1473,619 1474,620 1474,624 1476,626 1476,629 1477,630 1477,640 1478,641 1478,648 1477,649 1477,654 1476,655 1474,653 1474,652 1471,649 1472,648 1470,646 1470,645 1469,644 1469,643 1468,642 1468,641 1467,641 1466,640 1466,638 1465,637 1465,630 1465,633 1464,634 1462,632 1462,631 1461,630 1461,629 1460,628 1460,627 1459,626 1459,623 1458,622 1458,621 1457,621 1456,620 1456,619 1455,618 1455,615 1454,614 1454,613 1453,612 1453,611 1452,610 1452,609 1451,609 1450,608 1450,607 1449,606 1449,604 1448,603 1448,602 1444,598 1444,597 1443,596 1443,595 1442,594 1442,592 1441,592 1440,591 1440,590 1439,589 1439,588 1438,587 1438,586 1437,585 1437,583 1436,582 1436,581 1434,579 1434,578 1433,578 1432,577 1433,576 1432,575 1432,574 1430,572 1430,571 1429,570 1429,569 1428,568 1428,567 1427,566 1427,558 1426,557 1426,553 1425,552 1425,548 1424,547 1424,545 1423,544 1423,541 1422,540 1422,538 1421,537 1422,536 1421,535 1421,534 1420,533 1420,531 1419,530 1419,529 1418,529 1417,528 1417,525 1416,524 1416,523 1415,522 1415,521 1414,521 1413,520 1413,519 1412,518 1412,517 1411,516 1411,515 1410,514 1410,511 1409,511 1408,510 1408,509 1407,508 1407,507 1406,506 1406,503 1404,501 1404,499 1401,496 1401,494 1400,493 1400,491 1397,488 1397,487 1396,486 1396,485 1394,483 1394,482 1393,481 1393,480 1391,478 1391,477 1389,475 1389,474 1388,473 1389,472 1388,471 1388,470 1386,468 1386,467 1384,465 1384,462 1382,460 1382,458 1379,455 1379,454 1377,452 1377,450 1373,446 1373,445 1371,443 1371,442 1370,441 1370,440 1369,440 1367,438 1367,437 1365,435 1365,434 1364,433 1364,432 1362,430 1361,430 1360,429 1360,428 1357,425 1358,424 1356,422 1356,421 1355,421 1354,420 1354,419 1353,419 1352,418 1352,416 1351,415 1351,414 1350,413 1350,412 1349,411 1349,410 1347,408 1347,407 1346,406 1346,405 1345,404 1345,401 1343,399 1343,398 1342,397 1342,396 1341,395 1341,394 1340,393 1341,392 1340,391 1340,390 1339,389 1339,388 1338,387 1338,386 1337,386 1336,385 1337,384 1336,383 1336,382 1334,380 1334,379 1333,378 1333,377 1332,377 1331,376 1331,375 1330,374 1330,373 1329,372 1329,370 1325,366 1325,364 1324,363 1324,362 1323,361 1324,360 1324,359 1323,358 1323,356 1322,355 1322,353 1321,352 1321,348 1320,347 1320,345 1319,344 1319,343 1318,342 1318,340 1317,339 1317,335 1316,334 1316,331 1315,330 1315,329 1313,327 1313,324 1312,323 1312,321 1311,320 1311,318 1310,318 1311,319 1311,320 1310,321 1310,323 1311,324 1311,326 1312,327 1312,328 1314,330 1314,334 1315,335 1315,336 1316,337 1316,338 1317,339 1317,341 1318,342 1318,347 1319,348 1319,350 1320,351 1320,352 1321,353 1321,356 1322,357 1322,360 1321,361 1320,360 1320,359 1314,353 1314,351 1313,351 1307,345 1308,344 1306,342 1305,342 1300,337 1300,336 1298,334 1297,334 1296,333 1296,332 1293,329 1293,328 1290,325 1289,325 1285,321 1286,320 1285,320 1282,317 1281,317 1277,313 1277,312 1276,311 1276,310 1275,310 1274,309 1274,308 1273,308 1270,305 1270,304 1266,300 1265,300 1262,297 1262,295 1258,291 1257,291 1255,289 1255,288 1254,287 1254,286 1250,282 1249,282 1248,281 1248,279 1244,275 1244,274 1243,273 1242,273 1241,272 1241,271 1236,266 1236,265 1235,265 1233,263 1233,262 1231,260 1231,259 1229,257 1228,257 1226,255 1226,254 1225,253 1225,252 1222,249 1221,249 1217,245 1217,244 1214,241 1213,241 1211,239 1211,238 1209,236 1209,235 1208,234 1208,233 1207,233 1201,227 1201,226 1200,225 1199,225 1195,221 1195,220 1193,218 1193,217 1192,217 1188,213 1188,212 1184,208 1183,208 1180,205 1180,204 1172,196 1172,195 1170,193 1170,192 1169,192 1166,189 1166,188 1163,185 1163,184 1162,183 1161,183 1155,177 1155,176 1154,175 1153,175 1147,169 1148,168 1149,168 1150,169 1151,169 1154,172 1155,172 1156,173 1157,173 1158,174 1159,174 1161,176 1162,176 1164,178 1165,178 1166,179 1167,179 1168,180 1169,180 1169,179 1170,178 1171,178 1172,179 1173,179 1175,181 1176,181 1178,183 1178,184 1177,185 1176,184 1176,185 1177,185 1178,184 1180,184 1181,185 1182,185 1184,187 1185,187 1186,188 1186,189 1185,190 1184,189 1183,189 1181,187 1180,187 1179,186 1180,187 1181,187 1183,189 1184,189 1187,192 1189,192 1191,194 1192,194 1196,198 1197,198 1199,200 1201,200 1202,201 1202,202 1203,202 1205,204 1206,204 1208,206 1209,206 1210,207 1209,206 1209,205 1208,205 1207,204 1208,203 1210,203 1212,205 1213,205 1215,207 1216,207 1217,208 1217,209 1216,210 1215,210 1214,209 1213,209 1212,208 1212,209 1213,209 1216,212 1218,212 1221,215 1222,215 1224,217 1224,218 1226,218 1229,221 1230,221 1232,223 1233,222 1234,223 1234,224 1237,227 1238,226 1239,226 1240,227 1239,228 1243,232 1244,232 1247,235 1248,235 1250,237 1250,238 1251,238 1252,239 1252,240 1253,240 1254,241 1255,241 1262,248 1263,248 1266,251 1266,252 1267,252 1274,259 1274,261 1276,263 1276,264 1277,264 1278,265 1278,266 1280,268 1280,269 1281,270 1281,271 1282,272 1282,273 1284,275 1284,276 1286,278 1286,279 1287,280 1287,282 1293,288 1293,289 1297,293 1297,294 1298,294 1300,296 1300,297 1301,298 1301,299 1302,300 1302,304 1303,305 1304,305 1304,299 1303,298 1303,297 1302,297 1299,294 1299,293 1297,291 1297,290 1296,289 1295,289 1293,287 1293,286 1289,282 1289,281 1287,279 1287,278 1285,276 1285,275 1283,273 1284,272 1282,270 1282,269 1281,269 1280,268 1280,267 1279,266 1279,265 1280,264 1281,264 1282,265 1282,266 1288,272 1289,272 1290,273 1290,274 1294,278 1295,278 1296,279 1296,280 1297,280 1298,281 1298,282 1304,288 1305,288 1306,289 1306,290 1314,298 1314,299 1319,304 1320,304 1318,302 1318,301 1308,291 1308,290 1307,290 1304,287 1304,286 1299,281 1298,281 1297,280 1297,279 1295,277 1296,276 1298,276 1302,280 1302,281 1305,284 1307,284 1311,288 1311,289 1313,291 1314,291 1317,294 1317,295 1318,296 1318,297 1320,299 1320,300 1321,301 1322,301 1325,304 1324,305 1326,307 1326,308 1325,309 1322,306 1322,308 1323,308 1324,309 1324,310 1326,312 1327,312 1328,313 1329,312 1331,314 1330,315 1329,315 1330,316 1330,317 1338,325 1338,326 1342,330 1343,330 1344,331 1343,332 1346,335 1346,336 1350,340 1350,341 1353,344 1353,345 1356,348 1356,349 1358,351 1359,350 1360,351 1360,352 1359,353 1359,354 1364,359 1364,361 1366,363 1366,364 1368,366 1368,367 1370,369 1370,370 1373,373 1373,374 1374,375 1374,376 1375,376 1376,377 1376,378 1378,380 1378,382 1382,386 1382,387 1383,388 1383,389 1384,390 1385,390 1386,391 1385,392 1386,393 1387,392 1388,393 1388,394 1387,395 1388,396 1388,397 1389,398 1389,399 1390,400 1390,401 1391,402 1391,403 1392,404 1392,405 1394,407 1395,406 1397,408 1396,409 1395,409 1395,410 1396,411 1396,412 1398,414 1398,416 1401,416 1402,417 1402,418 1401,419 1400,418 1401,419 1401,420 1402,421 1402,423 1404,425 1404,424 1405,423 1408,426 1408,427 1409,428 1409,429 1410,430 1410,432 1411,432 1412,433 1412,434 1413,435 1413,436 1414,437 1414,438 1415,439 1415,441 1416,442 1416,444 1419,447 1419,449 1420,450 1420,452 1422,454 1422,456 1424,458 1424,460 1425,461 1425,463 1426,464 1424,466 1423,465 1422,465 1424,467 1424,470 1426,472 1426,474 1427,475 1427,476 1428,477 1428,479 1430,481 1430,483 1431,484 1431,486 1432,487 1432,491 1433,492 1433,494 1434,495 1434,503 1437,503 1438,504 1438,505 1438,502 1437,501 1437,500 1436,499 1436,497 1435,496 1435,494 1434,493 1434,486 1433,486 1432,485 1432,483 1431,482 1431,481 1432,480 1432,479 1431,478 1431,477 1430,476 1430,473 1428,471 1428,467 1427,466 1427,463 1426,462 1426,459 1425,459 1424,458 1424,454 1423,453 1423,452 1422,451 1422,450 1420,448 1420,447 1419,446 1419,445 1418,444 1418,443 1417,442 1417,441 1416,440 1416,439 1415,438 1415,437 1413,435 1413,434 1412,433 1413,432 1412,431 1412,430 1410,428 1410,426 1409,426 1408,425 1408,423 1406,421 1406,420 1405,419 1405,418 1401,414 1401,413 1400,412 1400,411 1399,410 1399,409 1398,409 1397,408 1397,407 1396,406 1396,405 1394,403 1394,402 1393,401 1394,400 1393,400 1391,398 1391,397 1390,396 1390,395 1388,393 1389,392 1387,390 1387,389 1386,388 1385,388 1384,387 1384,386 1383,385 1384,384 1382,382 1382,381 1380,379 1380,378 1377,375 1377,373 1375,371 1375,370 1374,369 1373,369 1372,368 1372,367 1371,366 1371,365 1369,363 1369,362 1366,359 1366,358 1363,355 1363,354 1362,353 1362,351 1361,351 1358,348 1358,347 1356,345 1356,343 1354,341 1353,341 1352,340 1352,339 1350,337 1350,336 1348,334 1348,333 1346,331 1345,331 1344,330 1344,328 1342,326 1342,325 1340,323 1340,322 1339,321 1338,321 1337,320 1337,319 1336,318 1336,317 1334,315 1334,314 1333,313 1332,313 1331,312 1331,311 1329,309 1329,308 1328,307 1328,306 1321,299 1321,297 1320,297 1319,296 1319,295 1305,281 1304,281 1297,274 1297,273 1295,273 1291,269 1290,269 1289,268 1289,267 1287,265 1286,265 1284,263 1283,263 1281,261 1281,260 1278,257 1277,257 1275,255 1274,255 1273,254 1273,253 1269,249 1268,249 1265,246 1265,245 1264,244 1264,243 1262,241 1261,241 1260,240 1260,239 1257,236 1257,235 1256,234 1256,233 1255,233 1247,225 1245,225 1243,223 1242,223 1241,222 1241,221 1238,218 1237,218 1236,217 1235,217 1230,212 1229,212 1224,207 1223,207 1220,204 1219,204 1218,203 1217,203 1215,201 1215,200 1214,199 1213,199 1212,198 1211,198 1210,197 1209,197 1207,195 1206,195 1204,193 1204,192 1203,192 1202,191 1200,191 1199,190 1198,190 1197,189 1196,189 1195,188 1194,188 1193,187 1193,186 1192,186 1191,185 1188,185 1187,184 1186,184 1184,182 1183,182 1182,181 1181,181 1180,180 1179,180 1178,179 1176,179 1175,178 1174,178 1173,177 1173,176 1172,176 1171,175 1169,175 1168,174 1167,174 1166,173 1165,173 1161,169 1160,169 1159,168 1158,168 1157,167 1156,167 1152,163 1151,163 1149,161 1147,161 1143,157 1142,157 1141,156 1140,156 1139,155 1137,155 1136,154 1135,154 1134,153 1134,152 1133,152 1132,151 1131,151 1130,150 1129,151 1127,149 1126,149 1125,148 1124,148 1123,147 1122,147 1121,146 1121,145 1119,145 1117,143 1116,143 1115,142 1114,142 1113,141 1113,140 1112,139 1111,139 1110,138 1109,138 1108,137 1106,137 1104,135 1102,135 1101,134 1100,134 1099,133 1096,133 1095,132 1094,132 1093,131 1092,131 1090,129 1090,128 1089,129 1088,128 1087,128 1086,127 1085,127 1084,126 1083,126 1081,124 1080,124 1079,123 1077,123 1076,122 1075,122 1074,121 1073,122 1071,120 1070,120 1069,119 1067,119 1066,118 1065,119 1064,118 1062,118 1061,117 1058,117 1056,115 1052,115 1051,114 1050,114 1049,115 1048,114 1046,114 1044,112 1038,112 1037,111 1034,111 1033,110 1029,110 1028,109 1024,109 1023,108 1021,108 1020,107 1018,107 1017,106 1017,105 1012,105 1011,104 1010,104 1009,103 1008,103 1007,102 1005,102 1004,101 998,101 997,100 995,100 993,98 990,98 989,97 986,97 985,96 983,96 982,95 979,95 978,94 977,95 976,94 973,94 972,93 970,93 968,91 965,91 964,90 963,90 962,89 961,90 959,90 957,88 952,88 951,87 949,87 948,86 946,86 944,84 942,84 941,83 942,82 969,82 970,83 977,83 978,82 985,82 986,83 989,83 990,84 993,84 994,83 1001,83 1002,84 1017,84 1018,85 1033,85 1034,86 1035,86 1036,87 1038,87 1039,88 1042,88 1043,89 1045,89 1046,90 1051,90 1052,91 1054,91 1055,92 1056,92 1058,94 1059,94 1060,95 1061,95 1062,96 1064,96 1067,99 1068,99 1069,100 1070,100 1072,102 1074,102 1075,103 1076,103 1077,104 1077,105 1078,105 1079,106 1080,106 1081,107 1083,107 1085,109 1086,109 1088,111 1089,111 1090,112 1091,112 1092,113 1093,113 1094,114 1095,114 1099,118 1101,118 1103,120 1105,120 1107,122 1108,122 1109,123 1110,123 1111,124 1112,124 1113,125 1114,124 1115,125 1116,125 1117,126 1118,126 1119,127 1120,127 1121,128 1122,128 1123,129 1124,129 1125,130 1126,130 1127,131 1129,131 1131,133 1132,133 1133,134 1134,134 1136,136 1138,136 1139,137 1140,137 1141,138 1143,138 1145,140 1148,140 1149,141 1150,141 1151,142 1152,142 1154,144 1156,144 1157,145 1158,145 1159,146 1160,146 1164,150 1165,150 1167,152 1169,152 1170,153 1170,154 1171,154 1173,156 1174,156 1175,157 1176,157 1177,158 1179,158 1184,163 1186,163 1187,164 1188,164 1191,167 1192,167 1193,168 1193,169 1195,169 1196,170 1197,170 1198,171 1199,171 1204,176 1207,176 1208,177 1209,177 1210,178 1210,179 1211,179 1212,180 1213,180 1215,182 1216,182 1217,183 1219,183 1220,184 1220,185 1221,186 1222,186 1224,188 1226,188 1228,190 1229,190 1231,192 1231,193 1232,194 1234,194 1238,198 1239,198 1241,200 1241,201 1242,201 1243,202 1244,202 1247,205 1248,205 1250,207 1250,208 1252,208 1254,210 1255,210 1258,213 1258,214 1259,214 1261,216 1262,216 1263,217 1264,217 1266,219 1266,220 1267,221 1268,221 1270,223 1271,223 1272,224 1273,224 1274,225 1274,226 1275,226 1276,227 1276,228 1278,230 1279,230 1280,231 1280,232 1281,232 1282,233 1282,234 1286,238 1286,239 1287,240 1288,240 1290,242 1290,243 1291,244 1291,245 1293,247 1293,248 1294,248 1298,252 1298,253 1300,255 1300,256 1301,256 1306,261 1306,262 1307,263 1307,264 1308,264 1314,270 1314,272 1315,272 1316,273 1316,274 1319,277 1319,278 1320,279 1320,281 1324,285 1324,286 1325,287 1325,289 1326,290 1326,291 1328,293 1328,294 1329,295 1329,296 1331,298 1331,299 1332,300 1332,301 1338,307 1338,308 1339,309 1339,310 1340,311 1340,312 1341,312 1344,315 1344,316 1346,318 1346,319 1347,320 1348,320 1349,321 1349,322 1354,327 1354,328 1355,328 1359,332 1359,333 1366,340 1366,341 1369,344 1369,345 1375,351 1375,353 1376,354 1376,355 1377,356 1377,357 1378,357 1379,358 1379,359 1379,356 1377,354 1377,353 1376,352 1376,351 1372,347 1372,346 1371,345 1371,344 1370,343 1369,343 1368,342 1368,341 1364,337 1364,335 1362,333 1361,333 1357,329 1357,328 1356,327 1356,326 1354,324 1352,324 1351,323 1351,322 1350,321 1350,320 1346,316 1346,315 1345,315 1343,313 1343,312 1342,311 1342,310 1340,308 1340,307 1337,304 1337,303 1334,300 1334,299 1333,298 1333,297 1332,297 1331,296 1331,295 1329,293 1329,291 1328,290 1328,289 1327,289 1326,288 1326,287 1324,285 1324,284 1323,283 1323,282 1322,281 1322,279 1321,279 1320,278 1320,277 1317,274 1317,272 1316,271 1316,270 1314,268 1313,268 1310,265 1310,263 1306,259 1305,259 1303,257 1304,256 1303,256 1302,255 1302,254 1298,250 1297,250 1296,249 1296,247 1293,244 1293,243 1291,241 1290,241 1289,240 1289,238 1281,230 1281,229 1277,225 1276,225 1275,224 1274,224 1273,223 1273,222 1272,221 1271,221 1268,218 1267,218 1264,215 1263,215 1260,212 1259,212 1258,211 1257,211 1255,209 1255,208 1254,208 1252,206 1251,206 1250,205 1249,205 1248,204 1247,204 1244,201 1244,200 1243,200 1242,199 1241,199 1238,196 1237,196 1234,193 1234,192 1233,193 1229,189 1228,189 1224,185 1223,185 1222,184 1221,184 1220,183 1219,183 1217,181 1217,180 1216,180 1214,178 1213,178 1212,177 1210,177 1208,175 1207,175 1206,174 1205,174 1203,172 1201,172 1199,170 1198,170 1197,169 1197,168 1196,168 1195,167 1193,167 1192,166 1191,166 1188,163 1187,163 1185,161 1184,161 1182,159 1181,159 1179,157 1178,157 1177,156 1177,155 1176,155 1174,153 1172,153 1171,152 1170,152 1169,151 1169,150 1168,149 1167,149 1166,148 1165,148 1163,146 1160,146 1159,145 1159,144 1158,144 1156,142 1153,142 1152,141 1151,141 1150,140 1148,140 1147,139 1146,139 1145,138 1145,137 1142,137 1141,136 1140,136 1139,135 1138,135 1137,134 1137,133 1136,133 1135,132 1134,132 1133,131 1131,131 1130,130 1129,131 1128,130 1127,130 1124,127 1123,127 1122,126 1121,127 1120,126 1118,126 1117,125 1116,125 1115,124 1114,124 1113,123 1113,122 1112,122 1111,121 1108,121 1107,120 1106,120 1105,119 1105,118 1104,117 1102,117 1101,116 1100,116 1098,114 1097,115 1096,114 1095,114 1094,113 1094,112 1093,112 1091,110 1088,110 1087,109 1086,109 1083,106 1082,106 1081,105 1080,105 1079,104 1078,104 1076,102 1075,102 1071,98 1070,98 1069,97 1067,97 1064,94 1063,94 1062,93 1061,93 1060,92 1059,92 1058,91 1057,92 1056,91 1054,91 1053,90 1051,90 1050,89 1050,88 1049,89 1048,89 1047,88 1045,88 1044,87 1042,87 1040,85 1036,85 1035,84 1034,84 1033,85 1031,85 1030,84 1026,84 1025,83 1009,83 1008,82 1002,82 1001,83 995,83 994,82 992,82 991,81 986,81 985,82 978,82 977,81 967,81 966,80 965,81 947,81 946,80 945,81 907,81 904,78 900,78 899,77 898,77 897,78 894,78 893,77 890,77 889,76 888,76 887,75 875,75 873,73 866,73 865,74 858,74 857,73 850,73 849,74 842,74 841,73 834,73 833,74 826,74 825,73 818,73 817,74 810,74 809,73 802,73 801,74 794,74 793,73 Z" fill="none" stroke="black" stroke-width="1" /></svg>