<svg width="1025" height="176" viewBox="0 0 1025 176" fill="none" xmlns="http://www.w3.org/2000/svg">
<path d="M1024.06 0V176H183.632C182.48 169.864 128.525 155.728 111.941 145.401C91.2106 132.493 -30.8138 68.8084 7.42787 53.3663C60.116 32.0907 51.019 27.9772 143.441 10.0483L452.441 44.1523L720.941 38.6713L830.941 7.00346L1024.06 0Z" fill="#494949" fill-opacity="0.1"/>
<path d="M1024.06 176V13L945.559 16.4458L878.059 38.6447L771.059 54.4614L618.059 61.3985L491.559 76.1053L353.559 54.4614L207.559 38.6447L152.559 26.7128H76.0586L0.0585938 13V176H1024.06Z" fill="url(#paint0_linear_159_72)"/>
<defs>
<linearGradient id="paint0_linear_159_72" x1="512.559" y1="-76.698" x2="512.559" y2="176" gradientUnits="userSpaceOnUse">
<stop offset="0.07" stop-color="#464545"/>
<stop offset="0.655" stop-color="#262626"/>
</linearGradient>
</defs>
</svg>
