<svg width="787" height="1308" viewBox="0 0 787 1308" fill="none" xmlns="http://www.w3.org/2000/svg">
<g filter="url(#filter0_d_132_50)">
<path fill-rule="evenodd" clip-rule="evenodd" d="M-8.00061 243.001L98.8677 1195.09C100.111 1206.17 102.42 1217.21 107.588 1227.09C138.887 1286.89 210.751 1315.16 275.408 1290.4L488.666 1208.73C658.768 1143.58 768.757 986.928 781.176 814.668C784.016 775.285 781.755 735.086 773.947 694.979C771.149 680.61 767.64 666.253 763.398 651.949L650.883 272.561C592.453 75.5411 389.591 -36.8725 194.966 11.7715C167.883 18.5404 143.019 31.8164 119.58 46.9779L26.2659 107.336C4.90057 121.156 -8.00054 144.883 -8.00046 170.328L-8.00045 191.188L-8.00056 210.972L-8.00051 211.2L-8.00061 243.001Z" fill="white"/>
</g>
<defs>
<filter id="filter0_d_132_50" x="-12.0005" y="0.474121" width="798.353" height="1306.89" filterUnits="userSpaceOnUse" color-interpolation-filters="sRGB">
<feFlood flood-opacity="0" result="BackgroundImageFix"/>
<feColorMatrix in="SourceAlpha" type="matrix" values="0 0 0 0 0 0 0 0 0 0 0 0 0 0 0 0 0 0 127 0" result="hardAlpha"/>
<feOffset dy="4"/>
<feGaussianBlur stdDeviation="2"/>
<feComposite in2="hardAlpha" operator="out"/>
<feColorMatrix type="matrix" values="0 0 0 0 0 0 0 0 0 0 0 0 0 0 0 0 0 0 0.25 0"/>
<feBlend mode="normal" in2="BackgroundImageFix" result="effect1_dropShadow_132_50"/>
<feBlend mode="normal" in="SourceGraphic" in2="effect1_dropShadow_132_50" result="shape"/>
</filter>
</defs>
</svg>
