<svg width="617" height="645" viewBox="0 0 617 645" fill="none" xmlns="http://www.w3.org/2000/svg">
<g filter="url(#filter0_d_97_167)">
<path d="M503.742 64.1804C406.227 -25.9416 254.117 -19.9485 163.995 77.5665L87.1046 160.764C-29.4853 286.919 -21.7319 483.702 104.422 600.291V600.291C159.873 651.538 246.368 648.13 297.615 592.68L584.734 282.007C624.093 239.419 621.476 172.988 578.888 133.629L503.742 64.1804Z" fill="white"/>
<path d="M164.362 77.9059L87.4718 161.104C-28.9307 287.055 -21.1897 483.522 104.762 599.924C160.009 650.983 246.188 647.588 297.248 592.34L584.367 281.667C623.538 239.283 620.934 173.168 578.549 133.997L503.403 64.5476C406.09 -25.387 254.297 -19.4063 164.362 77.9059Z" stroke="black" stroke-opacity="0.7"/>
</g>
<defs>
<filter id="filter0_d_97_167" x="0.491699" y="0.322021" width="616.131" height="644.281" filterUnits="userSpaceOnUse" color-interpolation-filters="sRGB">
<feFlood flood-opacity="0" result="BackgroundImageFix"/>
<feColorMatrix in="SourceAlpha" type="matrix" values="0 0 0 0 0 0 0 0 0 0 0 0 0 0 0 0 0 0 127 0" result="hardAlpha"/>
<feOffset dy="4"/>
<feGaussianBlur stdDeviation="2"/>
<feComposite in2="hardAlpha" operator="out"/>
<feColorMatrix type="matrix" values="0 0 0 0 0 0 0 0 0 0 0 0 0 0 0 0 0 0 0.25 0"/>
<feBlend mode="normal" in2="BackgroundImageFix" result="effect1_dropShadow_97_167"/>
<feBlend mode="normal" in="SourceGraphic" in2="effect1_dropShadow_97_167" result="shape"/>
</filter>
</defs>
</svg>
