<svg width="34" height="33" viewBox="0 0 34 33" fill="none" xmlns="http://www.w3.org/2000/svg">
<path d="M17.2571 0.255859C8.26291 0.255859 0.978027 7.54074 0.978027 16.5349C0.978027 23.7384 5.63791 29.8227 12.1088 31.9797C12.9228 32.1221 13.228 31.6338 13.228 31.2064C13.228 30.8198 13.2077 29.5378 13.2077 28.1745C9.11756 28.9274 8.05942 27.1774 7.73384 26.2617C7.5507 25.7936 6.7571 24.3489 6.06524 23.9623C5.49547 23.657 4.68152 22.9041 6.04489 22.8838C7.32686 22.8634 8.24256 24.064 8.54779 24.5524C10.0129 27.0146 12.353 26.3227 13.2891 25.8954C13.4315 24.8373 13.8588 24.125 14.3269 23.7181C10.7048 23.3111 6.91989 21.907 6.91989 15.6803C6.91989 13.9099 7.5507 12.4448 8.58849 11.3053C8.4257 10.8983 7.85593 9.2297 8.75128 6.99132C8.75128 6.99132 10.1147 6.564 13.228 8.65993C14.5304 8.29365 15.9141 8.11051 17.2978 8.11051C18.6815 8.11051 20.0653 8.29365 21.3676 8.65993C24.481 6.54365 25.8443 6.99132 25.8443 6.99132C26.7397 9.2297 26.1699 10.8983 26.0071 11.3053C27.0449 12.4448 27.6757 13.8896 27.6757 15.6803C27.6757 21.9274 23.8705 23.3111 20.2484 23.7181C20.8385 24.2268 21.3472 25.2035 21.3472 26.7297C21.3472 28.907 21.3269 30.657 21.3269 31.2064C21.3269 31.6338 21.6321 32.1425 22.4461 31.9797C29.0725 29.7426 33.5344 23.5289 33.5362 16.5349C33.5362 7.54074 26.2513 0.255859 17.2571 0.255859Z" fill="white"/>
</svg>
