<svg width="33" height="33" viewBox="0 0 33 33" fill="none" xmlns="http://www.w3.org/2000/svg">
<path d="M11.6512 16.5334C11.6512 19.2315 13.8377 21.4172 16.5349 21.4172C19.2329 21.4172 21.4187 19.2307 21.4187 16.5334C21.4187 13.8355 19.2322 11.6497 16.5349 11.6497C13.837 11.6497 11.6512 13.8361 11.6512 16.5334ZM8.39539 16.5334C8.39539 12.0397 12.0372 8.39387 16.5349 8.39387C21.0288 8.39387 24.6745 12.0357 24.6745 16.5334C24.6745 21.0272 21.0327 24.673 16.5349 24.673C12.0411 24.673 8.39539 21.0312 8.39539 16.5334ZM7.98703 5.952C9.11047 5.952 10.022 6.86494 10.022 7.98689C10.022 9.11031 9.10907 10.0218 7.98703 10.0218C6.865 10.0218 5.95353 9.109 5.95353 7.98689C5.95212 6.8664 6.865 5.952 7.98703 5.952ZM3.51167 16.5334C3.51167 20.5617 3.52234 21.2182 3.60577 23.0918C3.66569 24.3683 3.83737 25.2239 4.14602 26.019C4.42003 26.7255 4.74722 27.2351 5.29024 27.7781C5.83535 28.3232 6.34363 28.6498 7.05047 28.9227C7.84731 29.2321 8.70162 29.4037 9.97634 29.4626C11.7736 29.5468 12.4018 29.5567 16.5349 29.5567C20.5632 29.5567 21.2197 29.546 23.0931 29.4626C24.3691 29.4027 25.226 29.2307 26.0191 28.9228C26.7266 28.6481 27.2374 28.3203 27.7779 27.7799C28.3244 27.2326 28.6521 26.7228 28.9223 26.0227C29.2334 25.218 29.4053 24.3628 29.4641 23.092C29.5483 21.2947 29.5582 20.6666 29.5582 16.5334C29.5582 12.5051 29.5474 11.8486 29.4641 9.97521C29.4043 8.70203 29.232 7.84445 28.9243 7.04921C28.6503 6.34368 28.3213 5.83121 27.7813 5.29042C27.2332 4.74312 26.7247 4.41607 26.0229 4.14551C25.2211 3.83524 24.3648 3.66301 23.0936 3.60424C21.2962 3.52008 20.668 3.51014 16.5349 3.51014C12.5067 3.51014 11.8502 3.52089 9.97669 3.60424C8.70317 3.66414 7.84433 3.83654 7.04941 4.14454C6.34485 4.41787 5.83364 4.74621 5.29024 5.2888C4.74424 5.8348 4.4183 6.34172 4.14561 7.04905C3.83651 7.84526 3.66463 8.70089 3.60578 9.97489C3.52152 11.7721 3.51167 12.4003 3.51167 16.5334ZM0.255859 16.5334C0.255859 12.111 0.272138 11.5588 0.353534 9.82235C0.433578 8.0901 0.707604 6.9084 1.11051 5.87061C1.52428 4.79765 2.08318 3.8914 2.98802 2.98661C3.89288 2.08312 4.80179 1.5241 5.87214 1.10898C6.90858 0.707539 8.09151 0.433399 9.82388 0.352004C11.5603 0.274679 12.1124 0.254331 16.5349 0.254331C20.9575 0.254331 21.5095 0.270609 23.246 0.352004C24.9784 0.432097 26.1599 0.707539 27.1977 1.10898C28.2708 1.5228 29.1769 2.08312 30.0819 2.98661C30.9854 3.8914 31.5442 4.80172 31.9593 5.87061C32.361 6.9084 32.6349 8.0901 32.7163 9.82235C32.7937 11.5588 32.814 12.111 32.814 16.5334C32.814 20.9559 32.7977 21.5081 32.7163 23.2445C32.6362 24.9768 32.361 26.1571 31.9593 27.1962C31.5455 28.2679 30.9854 29.1755 30.0819 30.0803C29.1769 30.9852 28.2668 31.5427 27.1977 31.9578C26.1599 32.3608 24.9784 32.6334 23.246 32.7148C21.5095 32.7922 20.9575 32.8125 16.5349 32.8125C12.1124 32.8125 11.5603 32.7962 9.82388 32.7148C8.09016 32.6348 6.90993 32.3608 5.87214 31.9578C4.80044 31.5441 3.89288 30.9852 2.98802 30.0803C2.08318 29.1755 1.52563 28.2666 1.11051 27.1962C0.707604 26.1584 0.434929 24.9782 0.353534 23.2445C0.276208 21.5081 0.255859 20.9559 0.255859 16.5334Z" fill="white"/>
</svg>
