<svg width="520" height="3450" viewBox="0 0 520 3450" fill="none" xmlns="http://www.w3.org/2000/svg">
<path fill-rule="evenodd" clip-rule="evenodd" d="M123.225 6.21715C87.9667 -2.09463 47.5449 -1.37467 1.18472 11.1744L0.785465 10.5374C47.3186 -2.05851 87.9873 -2.80384 123.516 5.57177C159.038 13.9457 189.36 31.4224 215.242 55.194C266.993 102.726 301.081 175.508 323.543 251.379C346.009 327.261 356.858 406.282 362.091 466.329C364.708 496.353 365.921 521.635 366.479 539.412C366.759 548.3 366.874 555.312 366.92 560.103C366.943 562.498 366.949 564.337 366.948 565.579C366.948 565.874 366.948 566.135 366.947 566.362C366.947 566.612 366.946 566.82 366.945 566.986C366.945 567.144 366.944 567.263 366.943 567.343L366.942 567.455C366.942 567.46 366.942 567.463 366.443 567.447C366.787 567.704 366.786 567.705 366.782 567.707L366.766 567.717L366.702 567.757C366.644 567.793 366.558 567.847 366.445 567.919C366.217 568.062 365.878 568.275 365.431 568.558C364.536 569.123 363.212 569.965 361.489 571.068C358.044 573.274 353.01 576.528 346.652 580.717C333.937 589.096 315.929 601.215 294.761 616.178C252.423 646.106 197.448 687.406 146.89 732.901C96.3277 778.4 50.2031 828.077 25.5434 874.759C0.878407 921.451 -2.2691 965.058 32.9037 998.504C68.1754 1032.04 124.654 1064.34 186.886 1096.66C206.603 1106.9 226.898 1117.14 247.275 1127.43C291.184 1149.58 335.472 1171.93 375.166 1194.86C433.28 1228.43 481.638 1263.28 504.619 1300.68C527.621 1338.1 525.179 1378.04 481.815 1421.7C438.591 1465.22 407.851 1531.79 383.856 1608.49C359.863 1685.18 342.625 1771.96 326.377 1855.88C325.52 1860.3 324.666 1864.72 323.814 1869.13C308.508 1948.29 293.815 2024.29 274.837 2086.07C264.82 2118.68 253.605 2147.34 240.469 2170.43C227.337 2193.51 212.265 2211.06 194.505 2221.4C176.926 2231.63 161.091 2250.35 147.107 2275.45C133.129 2300.53 121.022 2331.93 110.867 2367.47C90.5576 2438.55 78.064 2526.15 74.0032 2612.79C69.9424 2699.44 74.3154 2785.1 87.7313 2852.31C94.4395 2885.92 103.406 2914.89 114.701 2937.07C120.349 2948.15 126.574 2957.53 133.381 2964.93C140.189 2972.33 147.562 2977.73 155.496 2980.9C171.678 2987.37 186.569 2999.56 200.247 3015.9C213.93 3032.25 226.428 3052.78 237.802 3075.95C260.549 3122.29 278.82 3179.26 293.07 3234.61C307.321 3289.96 317.555 3343.7 324.226 3383.61C327.561 3403.56 330.006 3420.06 331.617 3431.56C332.423 3437.31 333.02 3441.82 333.415 3444.89C333.613 3446.42 333.761 3447.6 333.859 3448.39L333.969 3449.28L334.003 3449.57L334.005 3449.58C334.005 3449.59 334.006 3449.59 333.508 3449.6C333.01 3449.62 333.01 3449.61 333.009 3449.61L332.973 3449.31L332.863 3448.42C332.765 3447.63 332.618 3446.46 332.42 3444.92C332.025 3441.86 331.428 3437.35 330.623 3431.6C329.012 3420.1 326.568 3403.61 323.233 3383.66C316.564 3343.76 306.333 3290.03 292.086 3234.7C277.839 3179.36 259.579 3122.44 236.856 3076.14C225.494 3052.99 213.021 3032.51 199.385 3016.22C185.743 2999.93 170.966 2987.86 155.018 2981.49C146.886 2978.24 139.401 2972.73 132.541 2965.27C125.679 2957.81 119.423 2948.39 113.759 2937.27C102.432 2915.03 93.454 2886.01 86.7414 2852.38C73.3155 2785.12 68.9427 2699.41 73.0046 2612.74C77.0665 2526.08 89.564 2438.43 109.886 2367.31C120.047 2331.75 132.167 2300.31 146.172 2275.18C160.171 2250.06 176.075 2231.21 193.84 2220.87C211.422 2210.63 226.423 2193.21 239.536 2170.16C252.645 2147.12 263.847 2118.49 273.859 2085.9C292.829 2024.14 307.517 1948.18 322.826 1869C323.677 1864.6 324.53 1860.18 325.387 1855.76C341.634 1771.85 358.876 1685.04 382.878 1608.32C406.878 1531.61 437.648 1464.93 480.981 1421.3C524.174 1377.81 526.561 1338.12 503.701 1300.92C480.82 1263.69 432.627 1228.93 374.539 1195.38C334.872 1172.46 290.632 1150.14 246.737 1127.99C226.354 1117.7 206.045 1107.45 186.302 1097.2C124.071 1064.88 67.4749 1032.53 32.1006 998.888C-3.37263 965.156 -0.100598 921.267 24.6021 874.504C49.3102 827.731 95.5014 777.993 146.086 732.474C196.674 686.952 251.677 645.631 294.03 615.693C315.207 600.723 333.223 588.599 345.945 580.216C352.306 576.024 357.343 572.768 360.791 570.56C362.515 569.456 363.841 568.614 364.737 568.047C365.185 567.764 365.525 567.55 365.753 567.407L365.944 567.287C365.945 567.208 365.945 567.098 365.946 566.956C365.948 566.641 365.949 566.171 365.949 565.551C365.95 564.312 365.944 562.473 365.921 560.08C365.875 555.293 365.759 548.284 365.48 539.399C364.922 521.63 363.71 496.356 361.094 466.342C355.862 406.312 345.017 327.327 322.564 251.489C300.109 175.639 266.056 102.987 214.449 55.5881C188.652 31.894 158.49 14.5306 123.225 6.21715ZM366.443 567.447L366.787 567.704L366.941 567.608L366.942 567.463L366.443 567.447Z" fill="black"/>
</svg>
