<svg width="586" height="4488" viewBox="0 0 586 4488" fill="none" xmlns="http://www.w3.org/2000/svg">
<path fill-rule="evenodd" clip-rule="evenodd" d="M122.058 5.20584C86.4212 -3.29124 46.0892 0.35173 0.431302 19.8398L0 19.0345C45.8282 -0.52618 86.4056 -4.2188 122.316 4.34353C158.22 12.9042 189.396 33.6999 216.459 63.0134C270.573 121.627 308.339 214.396 334.651 311.975C360.967 409.57 375.842 512.04 384.139 590.106C388.288 629.141 390.792 662.076 392.258 685.254C392.992 696.843 393.466 705.992 393.757 712.245C393.902 715.371 394.002 717.773 394.065 719.394C394.08 719.78 394.093 720.121 394.104 720.417C394.116 720.744 394.126 721.016 394.134 721.232C394.141 721.439 394.147 721.594 394.15 721.698L394.155 721.845C394.155 721.852 394.155 721.855 393.656 721.868C394.013 722.18 394.011 722.182 394.008 722.185L393.992 722.199L393.93 722.256C393.874 722.307 393.792 722.383 393.682 722.484C393.462 722.686 393.134 722.988 392.702 723.387C391.838 724.185 390.557 725.372 388.894 726.928C385.566 730.04 380.705 734.625 374.57 740.521C362.299 752.313 344.935 769.344 324.559 790.301C283.807 832.215 231.016 889.826 182.85 952.62C134.681 1015.42 91.1566 1083.38 68.9161 1145.99C46.6709 1208.61 45.7573 1265.77 82.5943 1307.1C119.535 1348.54 177.591 1386.94 241.394 1424.99C261.609 1437.04 282.401 1449.06 303.277 1461.13C348.262 1487.13 393.635 1513.35 434.449 1540.64C494.203 1580.59 544.28 1622.88 569.144 1670.17C594.029 1717.51 593.633 1769.83 552.558 1829.75C511.616 1889.47 484.32 1978.46 464.278 2080.23C444.238 2181.99 431.46 2296.47 419.524 2407.14C418.895 2412.98 418.268 2418.81 417.642 2424.62C406.404 2529.03 395.616 2629.25 379.822 2711.2C371.486 2754.46 361.751 2792.64 349.813 2823.67C337.878 2854.69 323.723 2878.61 306.514 2893.3C289.482 2907.84 274.625 2933.35 261.943 2967.05C249.265 3000.74 238.78 3042.56 230.456 3089.65C213.807 3183.83 205.809 3299.07 206.184 3412.49C206.559 3525.91 215.307 3637.5 232.142 3724.37C240.559 3767.81 250.996 3805.05 263.41 3833.25C269.617 3847.35 276.313 3859.18 283.49 3868.38C290.668 3877.59 298.307 3884.16 306.392 3887.76C322.885 3895.13 338.38 3910.06 352.875 3930.48C367.376 3950.91 380.908 3976.89 393.451 4006.39C418.539 4065.39 439.698 4138.56 456.76 4209.89C473.823 4281.22 486.791 4350.72 495.494 4402.39C499.845 4428.23 503.13 4449.6 505.328 4464.52C506.426 4471.98 507.253 4477.82 507.805 4481.8C508.081 4483.79 508.288 4485.32 508.427 4486.34L508.583 4487.51L508.631 4487.88L508.634 4487.89C508.634 4487.9 508.635 4487.9 508.138 4487.95C507.642 4488 507.641 4488 507.641 4488L507.59 4487.61L507.434 4486.45C507.296 4485.43 507.089 4483.9 506.813 4481.91C506.261 4477.94 505.435 4472.09 504.336 4464.64C502.14 4449.72 498.855 4428.35 494.505 4402.52C485.804 4350.87 472.839 4281.38 455.782 4210.07C438.724 4138.76 417.577 4065.64 392.516 4006.7C379.986 3977.23 366.482 3951.32 352.031 3930.96C337.573 3910.59 322.198 3895.82 305.945 3888.56C297.658 3884.86 289.902 3878.17 282.669 3868.89C275.434 3859.61 268.704 3847.72 262.48 3833.58C250.031 3805.3 239.58 3767.99 231.156 3724.52C214.309 3637.58 205.559 3525.95 205.184 3412.5C204.809 3299.04 212.809 3183.75 229.468 3089.51C237.797 3042.39 248.293 3000.52 260.995 2966.77C273.691 2933.03 288.611 2907.35 305.823 2892.66C322.859 2878.11 336.95 2854.35 348.867 2823.38C360.781 2792.41 370.504 2754.28 378.837 2711.05C394.624 2629.13 405.408 2528.94 416.648 2424.52C417.274 2418.71 417.9 2412.89 418.529 2407.06C430.464 2296.38 443.245 2181.87 463.293 2080.07C483.339 1978.29 510.659 1889.16 551.705 1829.28C592.617 1769.6 592.971 1717.6 568.239 1670.55C543.485 1623.46 493.577 1581.29 433.85 1541.36C393.062 1514.09 347.739 1487.89 302.769 1461.9C281.886 1449.83 261.08 1437.8 240.839 1425.73C177.037 1387.69 118.86 1349.22 81.8119 1307.65C44.6603 1265.97 45.6838 1208.44 67.9631 1145.72C90.2471 1082.98 133.835 1014.94 182.025 952.115C230.22 889.284 283.037 831.645 323.804 789.716C344.188 768.751 361.56 751.712 373.837 739.914C379.976 734.015 384.84 729.426 388.17 726.312C389.836 724.754 391.117 723.566 391.983 722.766C392.415 722.367 392.744 722.064 392.965 721.862L393.15 721.692C393.146 721.59 393.141 721.446 393.135 721.26C393.12 720.849 393.097 720.235 393.066 719.425C393.003 717.806 392.903 715.406 392.758 712.282C392.467 706.033 391.993 696.888 391.26 685.304C389.794 662.136 387.291 629.212 383.144 590.19C374.849 512.146 359.979 409.721 333.679 312.184C307.374 214.631 269.65 122.03 215.688 63.5811C188.712 34.3633 157.702 13.7046 122.058 5.20584ZM393.656 721.868L394.013 722.18L394.161 722.045L394.155 721.855L393.656 721.868Z" fill="black"/>
</svg>
