<svg width="30" height="31" viewBox="0 0 30 31" fill="none" xmlns="http://www.w3.org/2000/svg">
<path d="M1.83884 0.883789H27.8854C28.7845 0.883789 29.5133 1.61264 29.5133 2.5117V28.5582C29.5133 29.4573 28.7845 30.1861 27.8854 30.1861H1.83884C0.939768 30.1861 0.210938 29.4573 0.210938 28.5582V2.5117C0.210938 1.61264 0.939768 0.883789 1.83884 0.883789ZM3.46675 4.1396V26.9303H26.2575V4.1396H3.46675ZM7.53652 10.6512C6.18791 10.6512 5.09466 9.55798 5.09466 8.20937C5.09466 6.86076 6.18791 5.76751 7.53652 5.76751C8.88511 5.76751 9.97838 6.86076 9.97838 8.20937C9.97838 9.55798 8.88511 10.6512 7.53652 10.6512ZM5.90861 12.2791H9.16443V24.4884H5.90861V12.2791ZM14.8621 12.9783C15.8135 12.0599 16.9223 11.4652 18.1179 11.4652C21.4893 11.4652 23.8156 14.1983 23.8156 17.5698V24.4884H20.5598V17.5698C20.5598 15.9965 19.2843 14.721 17.711 14.721C16.1376 14.721 14.8621 15.9965 14.8621 17.5698V24.4884H11.6063V12.2791H14.8621V12.9783Z" fill="white"/>
</svg>
